<svg width="32" height="32" viewBox="0 0 32 32" fill="none" xmlns="http://www.w3.org/2000/svg">
  <rect width="32" height="32" rx="8" fill="url(#gradient)"/>
  <path d="M8 12C8 10.8954 8.89543 10 10 10H14C15.1046 10 16 10.8954 16 12V14C16 15.1046 15.1046 16 14 16H10C8.89543 16 8 15.1046 8 14V12Z" fill="white"/>
  <path d="M18 12C18 10.8954 18.8954 10 20 10H22C23.1046 10 24 10.8954 24 12V14C24 15.1046 23.1046 16 22 16H20C18.8954 16 18 15.1046 18 14V12Z" fill="white"/>
  <path d="M8 20C8 18.8954 8.89543 18 10 18H22C23.1046 18 24 18.8954 24 20V22C24 23.1046 23.1046 24 22 24H10C8.89543 24 8 23.1046 8 22V20Z" fill="white"/>
  <defs>
    <linearGradient id="gradient" x1="0" y1="0" x2="32" y2="32" gradientUnits="userSpaceOnUse">
      <stop stop-color="#6366F1"/>
      <stop offset="1" stop-color="#8B5CF6"/>
    </linearGradient>
  </defs>
</svg>
